# xmcd
#
# Track frame offsets: 
#        150
#        7821
#        38137
#        65502
#        80777
#        99935
#        126721
#        147876
#        151887
#        162825
#        176371
#        185898
#        191932
#        199769
#        207294
#        211409
#        213404
#        225702
#        246510
#        261682
#        294241
#        296310
#        299538
#        299988
#        301840
#        309273
#        311582
#        322100
#        328545
#
# Disc length: 4399 seconds
#
# Revision: 0
# Processed by: cddbd v1.5.2PL0 Copyright (c) Steve Scherf et al.
# Submitted via: ExactAudioCopy v0.95b4
#
DISCID=ce112d1d
DTITLE=The Beatles  - AB  Road - Complete Purple Chick Set v1.1 Jan.06
DTITLE=Various Artist - D2  FLAC
DYEAR=1900
DGENRE=
TTITLE0=Unknown 6.22
TTITLE1=You Wear Your Women Out 6.23
TTITLE2=I've Got A Feeling 6.24
TTITLE3=My Imagination 6.25
TTITLE4=My Imagination 6.26
TTITLE5=Improvisation 6.27
TTITLE6=I'm Gonna Pay For His Ride 6.28
TTITLE7=Don't Let Me Down 6.29
TTITLE8=Don't Let Me Down 6.30
TTITLE9=One After 909 6.31
TTITLE10=One After 909 6.32
TTITLE11=They Call Me Fuzz Face 6.33
TTITLE12=One After 909 6.34
TTITLE13=Improvisation 6.35
TTITLE14=That's All Right 6.36
TTITLE15=Thirty Days 6.37
TTITLE16=Improvisation 6.38
TTITLE17=Hear Me Lord 6.39
TTITLE18=Hear Me Lord 6.40
TTITLE19=Hear Me Lord 6.41
TTITLE20=Improvisation 6.42
TTITLE21=Hear Me Lord 6.43
TTITLE22=Improvisation 6.44
TTITLE23=Improvisation 6.45
TTITLE24=Leaning On A Lamp-post 6.46
TTITLE25=Annie 6.47
TTITLE26=Maureen 6.48
TTITLE27=I'm Talking About You 6.49
TTITLE28=Dialogue
EXTD=
EXTT0=
EXTT1=
EXTT2=
EXTT3=
EXTT4=
EXTT5=
EXTT6=
EXTT7=
EXTT8=
EXTT9=
EXTT10=
EXTT11=
EXTT12=
EXTT13=
EXTT14=
EXTT15=
EXTT16=
EXTT17=
EXTT18=
EXTT19=
EXTT20=
EXTT21=
EXTT22=
EXTT23=
EXTT24=
EXTT25=
EXTT26=
EXTT27=
EXTT28=
PLAYORDER=
